<?xml version="1.0" standalone="no"?>
<!DOCTYPE svg PUBLIC "-//W3C//DTD SVG 20010904//EN"
 "http://www.w3.org/TR/2001/REC-SVG-20010904/DTD/svg10.dtd">
<svg version="1.0" xmlns="http://www.w3.org/2000/svg"
 width="800.000000pt" height="800.000000pt" viewBox="0 0 800.000000 800.000000"
 preserveAspectRatio="xMidYMid meet">

<g transform="translate(0.000000,800.000000) scale(0.100000,-0.100000)"
fill="#000000" stroke="none">
<path d="M2070 5878 c1 -410 29 -1262 46 -1367 5 -29 7 -32 19 -20 8 8 32 56
54 108 104 241 316 486 586 678 139 98 337 206 448 244 79 27 80 25 -43 99
-195 117 -614 313 -880 413 -52 19 -117 45 -143 56 -92 40 -87 53 -87 -211z"/>
<path d="M6128 6105 c-3 -3 -68 -27 -144 -54 -303 -106 -779 -324 -955 -437
-108 -70 -108 -68 -41 -95 120 -48 332 -160 427 -224 127 -86 220 -162 325
-267 113 -113 185 -215 276 -392 42 -82 81 -145 88 -143 16 5 23 137 30 627 3
239 8 560 11 713 5 247 2 291 -17 272z"/>
<path d="M3970 5614 c-14 -3 -77 -11 -140 -20 -265 -36 -594 -148 -830 -282
-402 -229 -659 -522 -802 -912 l-42 -115 1 -145 c1 -177 22 -286 99 -515 30
-88 54 -161 54 -162 0 -1 -17 -5 -37 -8 -70 -12 -247 -54 -353 -84 -134 -39
-160 -67 -128 -136 17 -38 49 -40 161 -12 56 13 178 40 271 58 142 28 170 31
174 18 3 -8 31 -64 63 -126 l57 -111 -101 -38 c-170 -63 -328 -134 -475 -215
-80 -44 -82 -46 -82 -95 0 -44 25 -84 51 -84 6 0 87 38 180 85 167 85 256 122
419 175 47 15 93 31 103 35 11 5 17 3 17 -6 0 -8 27 -50 60 -93 33 -44 60 -83
60 -87 0 -4 -33 -25 -74 -47 -210 -113 -576 -364 -576 -394 0 -30 30 -87 52
-99 17 -9 28 -5 62 20 165 123 399 267 559 345 l98 48 77 -69 c388 -349 775
-563 1087 -603 288 -37 684 137 1121 492 67 54 138 116 158 138 20 22 41 40
47 40 44 0 457 -235 600 -342 40 -30 83 -60 94 -65 44 -23 99 29 93 89 -3 31
-17 42 -223 180 -121 81 -263 170 -315 197 -149 78 -143 67 -81 142 30 35 58
74 64 86 6 13 14 23 19 23 17 0 278 -89 363 -125 50 -20 145 -66 213 -101 68
-35 134 -64 147 -64 49 0 76 98 38 136 -29 29 -319 166 -483 228 -85 32 -163
63 -172 67 -14 8 -9 22 42 110 32 55 61 112 64 125 4 14 10 23 15 20 4 -3 93
-24 197 -46 104 -22 217 -47 251 -55 120 -29 153 -16 153 60 0 35 -5 48 -22
59 -25 16 -362 102 -441 112 -27 4 -51 13 -54 19 -2 7 7 39 20 71 84 201 135
477 124 674 -19 365 -325 787 -762 1052 -276 167 -547 278 -776 317 -207 36
-452 51 -559 35z m430 -200 c221 -28 404 -86 639 -203 365 -182 601 -398 762
-695 117 -216 127 -426 38 -739 -34 -115 -89 -272 -101 -282 -2 -1 -28 1 -58
6 -30 5 -220 12 -421 15 l-367 7 -12 -24 c-19 -35 -14 -81 10 -101 28 -23 62
-26 380 -38 304 -12 370 -18 370 -33 0 -24 -113 -208 -125 -203 -59 22 -541
126 -587 126 -40 0 -63 -14 -77 -48 -15 -35 -2 -75 31 -95 13 -8 77 -25 143
-37 204 -39 378 -79 389 -90 8 -8 -21 -59 -91 -159 -1 -2 -31 8 -67 23 -88 35
-331 116 -348 116 -8 0 -25 -11 -38 -25 -27 -29 -31 -88 -8 -111 12 -11 129
-57 261 -102 26 -9 47 -19 47 -23 0 -16 -51 -47 -70 -42 -11 3 -61 -12 -112
-33 -93 -39 -93 -39 -233 -39 -121 0 -149 3 -210 24 -171 58 -275 152 -324
292 -18 49 -18 56 -4 83 30 58 157 212 245 298 l89 87 -1 214 -1 215 258 5
c271 5 330 14 477 66 172 61 347 204 464 379 43 64 43 64 -54 144 -83 69 -239
149 -349 179 -120 33 -288 31 -410 -5 -117 -35 -172 -66 -257 -145 -119 -110
-194 -234 -242 -396 -35 -123 -46 -205 -46 -375 0 -80 -4 -151 -8 -158 -7 -9
-68 -12 -273 -10 l-264 3 -7 187 c-9 219 -33 356 -80 466 -86 199 -218 328
-417 411 -82 33 -93 35 -226 39 -125 3 -151 1 -239 -22 -130 -34 -245 -90
-344 -170 -44 -36 -83 -70 -87 -76 -8 -14 87 -150 160 -228 115 -124 221 -191
386 -246 133 -45 295 -61 520 -53 l156 6 7 -46 c3 -25 6 -121 6 -212 l0 -166
76 -80 c75 -79 251 -292 271 -329 26 -47 -34 -165 -125 -247 -163 -145 -432
-181 -670 -89 -43 16 -93 32 -111 34 -18 2 -42 13 -53 24 l-20 20 83 31 c249
95 243 92 253 138 6 26 2 37 -22 64 -29 33 -30 33 -73 20 -24 -7 -80 -28 -124
-46 -183 -76 -247 -98 -253 -88 -4 5 -29 42 -56 81 -27 40 -47 75 -43 78 7 7
138 37 372 85 164 33 185 45 185 103 -1 46 -30 76 -74 76 -38 0 -169 -27 -416
-85 -80 -19 -154 -35 -164 -37 -15 -2 -33 21 -81 104 -61 103 -62 107 -40 112
13 3 162 10 331 16 170 6 329 13 353 16 74 11 98 52 65 116 l-16 30 -361 -6
c-199 -4 -389 -7 -421 -9 l-60 -2 -38 100 c-83 218 -121 388 -122 550 0 128
12 172 99 350 194 399 643 728 1174 861 90 23 321 59 421 67 74 6 257 -3 380
-19z m-1476 -1031 c-4 -10 -9 -52 -12 -94 -5 -94 14 -145 84 -219 26 -27 44
-50 41 -50 -4 0 -30 9 -58 20 -84 34 -180 102 -244 174 l-59 68 24 19 c32 24
79 47 155 75 74 28 79 29 69 7z m352 3 c11 -8 26 -33 34 -55 23 -71 -18 -131
-92 -131 -81 0 -118 103 -59 168 33 36 81 43 117 18z m1788 -17 c56 -66 20
-169 -59 -169 -96 0 -137 113 -63 175 42 36 89 34 122 -6z m414 -44 c81 -42
80 -37 31 -95 -78 -93 -219 -185 -314 -205 -29 -7 -28 -5 18 35 68 60 100 127
101 215 1 39 -3 82 -8 97 l-8 28 67 -25 c36 -14 87 -36 113 -50z m-1915 -197
c25 -39 60 -138 52 -146 -9 -9 -255 -9 -278 0 -16 7 -13 12 25 41 60 46 115
122 122 169 l7 40 27 -38 c15 -22 35 -51 45 -66z m1225 -48 c11 -14 37 -39 59
-56 l41 -31 -60 -7 c-76 -8 -223 -8 -230 0 -10 9 39 110 83 176 l41 60 24 -58
c13 -33 32 -70 42 -84z m-538 -775 c0 -23 -44 -63 -91 -85 -54 -23 -90 -12
-121 38 -12 21 -26 40 -32 44 -14 9 35 15 147 17 81 1 97 -1 97 -14z m-109
-650 c33 -41 175 -142 252 -178 109 -52 173 -70 270 -76 48 -3 88 -10 90 -16
6 -26 -237 -163 -363 -203 -252 -81 -426 -65 -698 63 -106 50 -211 122 -212
145 0 12 15 15 73 16 95 2 210 34 316 89 91 48 215 135 234 166 15 24 15 24
38 -6z"/>
</g>
</svg>
